<?xml version="1.0" standalone="yes"?>
<svg xmlns="http://www.w3.org/2000/svg" width="1125" height="1535">
<path style="fill:#fefefe; stroke:none;" d="M0 0L0 20C2.2491 21.1536 2.84638 21.7509 4 24L8 24L8 28C10.249 29.1536 10.8464 29.751 12 32C18.0412 33.5051 21.738 39.1094 28 40C29.4147 44.2666 33.8583 44.1115 36 48C43.2917 48.2175 48.4806 52.9742 56 53L56 56C70.1791 56.1571 84.2802 63.2289 98.1698 65.7407C101.396 66.3242 104.716 65.748 107.961 66.1289C121.798 67.7534 135.901 69.8285 150 69.9961C195.319 70.535 240.678 70 286 70C312.142 70 338.924 71.6965 365 69.9105C378.117 69.0121 391.116 67.6462 404.039 66.1289C407.284 65.748 410.604 66.3242 413.83 65.7407C427.72 63.2289 441.821 56.1571 456 56C459.111 50.8632 466.151 53.5212 468 48C472.79 47.3187 475.641 44.1967 479.611 41.7037C484.279 38.7728 490.195 37.7963 492 32C500.664 30.7677 510.71 20.5114 512 12C514.627 11.1614 515.161 10.6266 516 8L520 8L520 4C522.627 3.16138 523.161 2.62646 524 0L496 0C491.571 0 486.517 -0.665283 482.171 0.274658C476.804 1.4353 473.405 6.65344 468 8C465.858 11.8885 461.415 11.7334 460 16C455.283 16.6708 452.145 19.895 448 22C445.853 19.7283 444.787 21.5552 444 24C428.122 26.1008 413.164 32.2906 397 33.8302C391.367 34.3667 385.675 33.6515 380.039 34.0541C376.908 34.2777 374.122 35.7263 370.985 35.9459C357.461 36.8928 343.56 36 330 36L247 36C200.216 36 152.425 38.7693 106 32.7184C96.7161 31.5083 87.7466 28.8182 78.7153 26.4507C74.3791 25.314 69.4263 24.9148 65.2886 23.1829C62.8861 22.1772 61.0196 20.2419 58.7145 19.0564C55.1223 17.209 51.0693 16.4672 47.6111 14.2963C43.6405 11.8036 40.7907 8.6814 36 8C35.1613 5.37341 34.6266 4.83862 32 4L32 0L0 0z"/>
<path style="fill:#fdfdfd; stroke:none;" d="M32 0L32 4C34.2488 5.15344 34.8466 5.75122 36 8C40.6166 9.15027 43.5735 12.47 47.6111 14.7939C52.7152 17.7317 59.0747 20.877 64.439 23.1829C68.5336 24.943 73.52 25.3397 77.8341 26.4507C84.5897 28.1903 91.3402 30.3352 98.1698 31.7554C107.062 33.6044 116.047 33.317 125 34.1698C160.421 37.5435 196.387 36 232 36L317 36C335.234 36 354.817 38.0516 372.91 35.8711C375.367 35.5751 377.579 34.4178 380.039 34.1289C390.985 32.8439 401.905 33.7544 412.91 31.9105C423.396 30.1538 433.637 26.3097 444 24C445.233 21.7883 445.632 21.0078 448 22C452.354 20.5026 455.505 17.12 460 16C462.142 12.1115 466.585 12.2667 468 8C472.821 7.31433 477.456 4.14612 480 0L452 0C448.773 5.99915 441.205 6.17236 435.464 8.72375C427.409 12.3033 419.778 12.6338 411.09 14.0895C406.005 14.9413 401.081 17.2699 395.961 17.8711C387.028 18.9198 377.997 18.113 369 19.2816C356.204 20.9435 342.897 20 330 20L264 20L190 20C173.683 20 156.238 21.7729 140.039 19.8711C137.579 19.5822 135.367 18.4249 132.91 18.1289C127.664 17.4966 122.282 18.3147 117.015 17.9459C114.183 17.7477 111.698 16.4648 108.91 16.1289C97.8623 14.7974 86.4757 13.9874 76 9.57178C70.577 7.28589 62.8821 5.37158 60 0L32 0z"/>
<path style="fill:#fcfcfc; stroke:none;" d="M60 0C61.8512 5.73206 70.7571 7.87512 76 9.98462C86.1898 14.0845 97.2665 14.8734 107.961 16.1289C110.742 16.4554 113.224 17.7449 116.039 17.9459C121.317 18.3229 126.701 17.5114 131.961 18.1289C134.421 18.4178 136.633 19.5751 139.09 19.8711C155.57 21.8573 173.393 20 190 20L265 20L331 20C343.897 20 357.204 20.9435 370 19.2816C378.975 18.116 388.006 18.9442 396.91 17.8711C402.028 17.2543 406.949 14.9203 412.039 14.0895C420.225 12.7534 427.96 12.7623 435.464 9.11426C440.942 6.45081 449.873 6.56958 452 0C443.848 0 435.183 -0.846558 427.09 0.128906C422.29 0.707397 417.667 2.90515 412.91 3.74072C402.336 5.59839 390.767 5.28784 380.039 6.05408C376.575 6.30151 373.506 7.85217 369.996 7.98145C344.075 8.93652 317.941 8 292 8C243 8 193.999 8.09778 145 8C140.377 7.99072 136.447 6.37451 131.961 6.05408C120.917 5.26526 110.068 5.97278 99.0895 3.75537C94.3636 2.80078 89.7002 0.706177 84.9105 0.128906C76.8168 -0.846558 68.1522 0 60 0z"/>
<path style="fill:#fbfbfb; stroke:none;" d="M88 0L88 2C93.7781 2.06409 99.2583 3.96973 105 4.71838C113.73 5.85657 122.256 5.44287 130.985 6.05408C134.789 6.32043 138.129 7.92969 142.004 7.99536C186.64 8.75134 231.356 8 276 8C307.589 8 339.421 9.15942 370.985 7.98145C374.181 7.86218 376.915 6.49573 380.039 6.12891C390.885 4.85559 402.069 5.17773 412.91 3.87109C416.757 3.40747 420.025 2.04407 424 2L424 0L88 0z"/>
<path style="fill:#ffffff; stroke:none;" d="M524 0C522.846 2.24902 522.249 2.84644 520 4L520 8L516 8C514.846 10.2491 514.249 10.8464 512 12C509.745 20.2795 500.463 29.8914 492 32C489.187 37.5229 483.704 38.6057 478.803 41.7037C475.12 44.0325 472.309 46.9264 468 48C465.376 53.3118 457.819 49.7537 456 56C441.432 56.05 427.17 63.2357 412.91 65.7407C409.669 66.3102 406.344 65.7366 403.09 66.1289C390.151 67.6882 377.135 69.0109 364 69.9105C339.573 71.5836 314.489 70 290 70C244.002 70 197.998 70.2211 152 69.9993C138.081 69.9321 123.412 68.7155 109.83 66.2593C105.98 65.5629 102.002 66.4478 98.1698 65.5447C84.6197 62.3519 69.9713 56.048 56 56L56 53C48.5686 52.9176 43.3806 48.083 36 48C34.5852 43.7332 30.1418 43.8887 28 40C21.9588 38.4949 18.262 32.8906 12 32C11.1613 29.3735 10.6265 28.8386 8 28L8 24L4 24C3.16126 21.3734 2.62653 20.8386 0 20L0 1535L1125 1535L1125 0L524 0z"/>
<path style="fill:#eae7e2; stroke:none;" d="M381 324C386.959 326.5 395.564 325 402 325C396.041 322.5 387.436 324 381 324z"/>
<path style="fill:#dbd7cc; stroke:none;" d="M189 1008L192 1008C193.473 999.995 186.401 992.153 183.337 985C177.498 971.367 174.224 955.518 171.119 941C168.262 927.644 165.266 914.221 161.866 901.015C160.641 896.259 158.493 891.849 157.514 887C156.846 883.691 157.253 880.296 156.545 877C146.635 830.87 136.039 785.008 125.464 738.985C122.953 728.057 121.57 716.918 118.87 706C116.323 695.701 114.144 685.261 111.522 675C108.939 664.895 105.868 654.558 106.019 644C106.349 620.725 122.642 595.367 141 582C138.47 614.057 143.792 646.115 146.83 678L158.17 798C160.127 818.556 163 839.331 163 860C163.683 858.494 163.826 857.685 164 856L167 858C168.186 853.987 167.64 850.098 168.209 846C169.528 836.506 169.778 827.642 170.015 818C170.291 806.727 171.544 795.308 172.039 784C172.855 765.371 172.785 746.612 174.09 728C175.363 709.825 177.911 691.28 177.999 673C178.063 659.701 177.436 646.285 178.039 633C178.27 627.915 179.935 623.126 179.996 618C180.161 604.236 178.477 588.393 181.924 575C184.647 564.418 188.575 554.628 195.478 546C209.99 527.862 235.14 516.705 254.91 505.23C303.328 477.128 350.879 446.424 397.576 415.573C410.349 407.133 423.085 398.669 436 390.471C447.752 383.011 459.779 375.725 474 374.129C490.857 372.238 505.108 381.202 519 389.127C530.128 395.476 541.559 401.437 553 407.198C569.548 415.532 585.505 425.228 602 433.741C639.609 453.153 677.385 472.239 715 491.641C743.251 506.214 772.161 516.509 786.891 547C795.701 565.237 794.742 585.323 796.089 605C798.026 633.271 798.721 661.69 799.961 690C800.456 701.305 799.316 712.71 800.089 724C802.578 760.338 801.631 797.644 800.039 834C799.647 842.956 800.722 852.075 799.829 861C798.182 877.481 790.267 893.944 778.924 905.961C769.017 916.456 756.555 922.553 744 929.295C731.271 936.13 718.548 943.25 706 950.427C658.937 977.348 612.483 1005.34 567.001 1034.86C542.659 1050.66 515.148 1077.06 484 1074.91C468.257 1073.83 455.021 1066.45 441 1060.03C414.228 1047.77 387.701 1034.98 361 1022.51C350.422 1017.57 340.071 1010.77 329 1007.01C326.294 1006.09 320.212 1003.48 317.478 1004.65C313.699 1006.28 318.501 1010.22 320.045 1011.3C327.079 1016.25 334.795 1020.28 342.039 1024.91C363.028 1038.33 383.906 1051.85 404.925 1065.23C413.671 1070.79 422.277 1078.32 432 1082C425.753 1083.35 418.275 1080.84 412 1079.75C396.582 1077.07 381.373 1073.38 366 1070.58C359.38 1069.37 352.762 1066.92 346 1068L346 1071C351.326 1073.07 356.491 1075.7 362 1077.25C368.181 1079 374.865 1079.73 380.91 1081.68C403.315 1088.9 425.517 1096.68 448 1103.65C459.17 1107.12 470.888 1109.75 481.91 1113.67C500.41 1120.26 519.594 1128.76 539 1132.62C559.476 1136.69 582.802 1136.32 602.83 1129.92C622.113 1123.77 637.519 1111.73 652.039 1098.17C666.183 1084.96 679.905 1071.35 693.08 1057.17C710.705 1038.19 729.148 1019.97 746.826 1001.04C772.69 973.342 796.987 944.28 822.134 915.961C846.258 888.794 874.103 859.295 876.91 821C877.715 810.02 877.714 797.802 875.487 787C871.666 768.47 863.516 750.889 857.597 733C843.871 691.509 831.195 649.87 818.77 608C809.542 576.901 800.55 545.447 792.579 514C785.518 486.137 779.207 460.017 758.116 438.884C731.059 411.775 693.369 404.663 658 394.124C597.183 376.002 536.147 359.352 475 342.406C453.567 336.466 431.043 328.45 409 325.3C387.488 322.226 363.061 325.135 343.001 333.286C315.896 344.3 296.275 366.725 276 387C242.659 420.341 210.044 454.502 177.91 489C156.71 511.761 135.265 534.249 114.344 557.255C94.6121 578.953 75.1588 599.714 67.76 629C56.1504 674.954 77.742 721.138 94.1752 763C113.782 812.947 132.546 863.527 151.088 914C159.093 935.792 165.564 958.443 174.181 980C178.171 989.98 183.812 998.681 189 1008z"/>
<path style="fill:#a5a5a5; stroke:none;" d="M1115 435L1115 395L1115 367C1115 355.781 1116.01 344.189 1115.57 333.044C1115.43 329.653 1111.52 326.735 1108.62 329.619C1106.9 331.32 1107.51 333.882 1107.72 336C1108.18 340.643 1108 345.338 1108 350L1108 409L1108 427C1108 429.178 1107.5 432.546 1109.03 434.357C1110.49 436.097 1113.12 435.292 1115 435z"/>
<path style="fill:#9a9a9a; stroke:none;" d="M1107 334L1107 432C1109.7 425.564 1108 415.951 1108 409L1108 359C1108 351.52 1109.9 340.919 1107 334z"/>
<path style="fill:#9b9b9b; stroke:none;" d="M1115 334L1115 432C1117.9 425.082 1116 414.48 1116 407L1116 357C1116 350.049 1117.7 340.436 1115 334z"/>
<path style="fill:#eae7e2; stroke:none;" d="M332 338C333.809 338.574 334.069 338.465 336 338C334.341 337.594 333.758 337.691 332 338z"/>
<path style="fill:#ecebe7; stroke:none;" d="M320 345C321.809 345.574 322.069 345.465 324 345C322.341 344.594 321.758 344.691 320 345z"/>
<path style="fill:#ebe8e1; stroke:none;" d="M491 346C492.75 347.255 493.858 347.614 496 348C494.249 346.745 493.143 346.386 491 346z"/>
<path style="fill:#e6e5e0; stroke:none;" d="M379 348C382.959 349.661 387.737 349 392 349C388.041 347.339 383.263 348 379 348z"/>
<path style="fill:#ffffff; stroke:none;" d="M243 474C248.752 471.581 253.777 467.543 259.09 464.28C269.811 457.695 280.353 450.837 291.09 444.281C321.562 425.673 352.384 407.712 383.001 389.374C392.246 383.837 401.643 378.602 410.91 373.091C419.112 368.214 427.763 362.642 437 360C429.845 356.168 420.846 355.032 413 353.13C400.552 350.111 386.864 347.09 374 349.329C353.76 352.852 340.653 365.176 327.196 379.576C315.367 392.233 304.354 405.648 292.536 418.286C281.841 429.723 271.576 441.533 260.924 453.014C255.034 459.363 246.65 466.172 243 474z"/>
<path style="fill:#ebe5e1; stroke:none;" d="M396 349C398.886 350.535 401.748 350.858 405 351C402.114 349.465 399.252 349.142 396 349z"/>
<path style="fill:#ebe6e4; stroke:none;" d="M429 357C431.283 358.222 433.428 358.652 436 359C433.686 357.409 431.81 357.143 429 357z"/>
<path style="fill:#ebe7e3; stroke:none;" d="M470 374C476.232 376.615 486.104 376.124 493 377C486.782 372.728 477.231 374 470 374z"/>
<path style="fill:#ffffff; stroke:none;" d="M469 375.425C449.449 378.118 435.591 390.898 419.83 401.391C412.377 406.354 404.275 410.653 396.715 415.573C350.031 445.95 302.934 476.441 254.91 504.694C230.046 519.323 197.727 532.733 185.877 561C176.763 582.739 180.966 608.047 179.961 631C178.049 674.648 175.056 718.305 173.985 762C173.625 776.692 172.093 791.341 171.09 806C170.589 813.312 171.411 820.688 170.91 828C168.861 857.924 167.287 889.107 183.309 915.83C195.995 936.99 215.762 945.727 236 957.772C272.671 979.597 311.106 999.189 349.83 1017.14C379.687 1030.98 408.69 1046.79 439 1059.59C448.393 1063.56 457.178 1069 467 1072.01C476.052 1074.79 489.637 1075.08 499 1073.7C513.051 1071.63 524.681 1063.43 536.17 1055.86C548.756 1047.56 561.278 1039.12 574 1031.05C623.631 999.552 673.906 969.517 725 940.488C750.678 925.899 780.765 914.707 793.275 885.576C803.022 862.881 800 836.236 800 812C800 771.209 802.224 729.721 799.957 689C799.747 685.237 798.253 681.763 798.043 678C797.562 669.354 798.339 660.651 797.961 652C797.129 633.007 795.871 613.993 795.039 595C794.138 574.421 793.611 555.279 782.139 537.286C768.269 515.532 746.153 506.729 724 495.653C692.924 480.115 661.685 464.669 631 448.371C597.991 430.839 564.876 413.474 532 395.691C512.248 385.007 492.601 372.175 469 375.425z"/>
<path style="fill:#e6e3db; stroke:none;" d="M494 377C497.116 378.958 500.35 379.681 504 380C500.843 377.917 497.757 377.193 494 377z"/>
<path style="fill:#ffffff; stroke:none;" d="M568 389C578.272 398.219 593.019 404.51 605 411.336C626.845 423.783 648.417 436.896 670 449.772C699.879 467.596 729.523 486.075 758.999 504.533C767.346 509.76 773.687 518.239 782 523C781.31 512.142 775.717 501.184 772.167 491C767.013 476.217 763.297 461.693 753.471 449C743.083 435.58 727.149 424.592 711 419.377C700.713 416.056 689.589 414.719 679 412.6C663.986 409.597 649.014 406.372 634 403.385C618.67 400.335 603.276 396.95 588 393.576C581.385 392.115 574.729 389.67 568 389z"/>
<path style="fill:#eee9e6; stroke:none;" d="M583 392C584.506 392.683 585.315 392.826 587 393C585.494 392.317 584.685 392.174 583 392z"/>
<path style="fill:#e8e7e3; stroke:none;" d="M587 393C588.769 393.779 590.036 393.912 592 394C590.231 393.221 588.964 393.088 587 393z"/>
<path style="fill:#f3f2ed; stroke:none;" d="M416 402C418.462 402.697 419.665 402.11 422 401C419.726 400.591 418.219 401.212 416 402z"/>
<path style="fill:#e6e7de; stroke:none;" d="M627 401C630.513 403.441 634.78 403.818 639 404C635.34 402.04 631.122 401.337 627 401z"/>
<path style="fill:#e5e2dd; stroke:none;" d="M640 404C644.179 406.226 649.302 406.798 654 407C649.821 404.774 644.698 404.202 640 404z"/>
<path style="fill:#e8e3df; stroke:none;" d="M654 407C657.16 408.519 660.509 408.85 664 409C660.829 407.1 657.646 407.031 654 407z"/>
<path style="fill:#eeeee9; stroke:none;" d="M557 409C558.223 410.195 558.42 410.316 560 411C558.777 409.805 558.58 409.684 557 409z"/>
<path style="fill:#e9e9e5; stroke:none;" d="M668 410C669.769 410.779 671.036 410.912 673 411C671.231 410.221 669.964 410.088 668 410z"/>
<path style="fill:#eae5e2; stroke:none;" d="M673 411C674.769 411.779 676.036 411.912 678 412C676.231 411.221 674.964 411.088 673 411z"/>
<path style="fill:#e6e7de; stroke:none;" d="M688 414C691.16 415.519 694.509 415.85 698 416C694.818 414.308 691.575 414.074 688 414z"/>
<path style="fill:#efeeea; stroke:none;" d="M325 424L328 423C326.222 422.044 325.979 422.234 325 424z"/>
<path style="fill:#d2d2d2; stroke:none;" d="M1107.33 432.667C1107.28 432.722 1107.22 433.778 1107.67 433.333C1107.72 433.278 1107.78 432.222 1107.33 432.667z"/>
<path style="fill:#cbcbcb; stroke:none;" d="M1115.33 432.667C1115.28 432.722 1115.22 433.778 1115.67 433.333C1115.72 433.278 1115.78 432.222 1115.33 432.667z"/>
<path style="fill:#c7c7c7; stroke:none;" d="M1112.67 435.333C1112.22 435.778 1113.28 435.722 1113.33 435.667C1113.78 435.222 1112.72 435.278 1112.67 435.333z"/>
<path style="fill:#edeae3; stroke:none;" d="M288 445C289.809 445.574 290.069 445.465 292 445C290.341 444.594 289.758 444.691 288 445z"/>
<path style="fill:#ebe8e3; stroke:none;" d="M280 450C281.809 450.574 282.069 450.465 284 450C282.341 449.594 281.758 449.691 280 450z"/>
<path style="fill:#e9e8e4; stroke:none;" d="M669 449C670.223 450.195 670.42 450.316 672 451C670.777 449.805 670.58 449.684 669 449z"/>
<path style="fill:#eae6e3; stroke:none;" d="M794 576L794 584C795.161 581.23 795.161 578.77 794 576z"/>
<path style="fill:#ffffff; stroke:none;" d="M139 582C134.549 587.791 128.813 592.369 124.17 598.004C116.976 606.733 110.954 617.905 108.464 629C104.762 645.49 107.995 660.994 111.764 677C115.289 691.973 119.08 706.951 122.338 722C131.573 764.654 141.218 807.336 150.576 850C155.617 872.985 159.734 896.303 165.914 919C170.837 937.076 173.276 956.159 178.838 974C185.019 993.828 196.221 1011.25 212 1024.79C231.103 1041.18 256.725 1043.96 279.985 1050.39C314.732 1059.99 349.681 1067.21 385 1073.46C400.657 1076.24 415.855 1082.3 432 1083C426.009 1077.27 418.043 1073.28 411.09 1068.8L375 1045.46C337.863 1021.42 300.451 997.254 262 975.336C236.975 961.072 207.77 949.759 188.171 928C176.829 915.409 167.59 897.795 164.615 881C163.558 875.033 164.322 869.01 163.91 863C162.955 849.051 162.154 834.905 160.83 821C159.395 805.93 156.604 791.066 155.17 776C153.97 763.389 154.116 750.66 152.829 738C152.077 730.603 149.891 723.453 149.17 716C148.336 707.386 148.839 698.552 147.816 690C147.289 685.604 145.614 681.431 145.171 677C142.02 645.535 139.645 613.549 141 582L139 582z"/>
<path style="fill:#e7e5df; stroke:none;" d="M795 592L795 600C796.161 597.23 796.161 594.77 795 592z"/>
<path style="fill:#e0ddd9; stroke:none;" d="M806 603L806 668C808.085 663.031 807 656.35 807 651L807 619C807 613.92 807.981 607.72 806 603z"/>
<path style="fill:#f7f7f2; stroke:none;" d="M807 603L807 680C809.292 674.538 808 666.887 808 661L808 622C808 616.31 810.214 607.787 807 603z"/>
<path style="fill:#ebe7e4; stroke:none;" d="M140 608L140 616C141.161 613.23 141.161 610.77 140 608z"/>
<path style="fill:#eeebe6; stroke:none;" d="M796 608L796 624C797.812 619.681 797.812 612.319 796 608z"/>
<path style="fill:#ffffff; stroke:none;" d="M808 609C808 663.372 807.664 717.749 810.039 772C811.499 805.327 816 838.604 816 872C822.979 867.084 829.749 860.236 835.424 853.816C854.906 831.778 858.389 805.219 854.711 777C853.775 769.821 851.085 763.025 849.514 756C844.949 735.586 839.613 715.273 834.244 695C832.705 689.191 829.88 683.688 828.41 677.961C825.254 665.661 821.358 653.302 818.339 641C815.783 630.581 814.644 617.778 808 609z"/>
<path style="fill:#e8e7e2; stroke:none;" d="M74 611C72.8182 613.43 72.2695 615.313 72 618C73.5291 615.682 74.4845 613.745 74 611z"/>
<path style="fill:#f5f2ec; stroke:none;" d="M179 624L179 636C180.512 632.396 180.512 627.604 179 624z"/>
<path style="fill:#e2dfdb; stroke:none;" d="M178 628L178 648C180.087 643.027 180.087 632.973 178 628z"/>
<path style="fill:#e7e4df; stroke:none;" d="M142 632L142 640C143.161 637.23 143.161 634.77 142 632z"/>
<path style="fill:#f1eee8; stroke:none;" d="M797 632L797 648C798.812 643.681 798.812 636.319 797 632z"/>
<path style="fill:#ebe8e1; stroke:none;" d="M66 634L65 644C66.7035 640.796 67.3895 637.407 66 634z"/>
<path style="fill:#e3e2de; stroke:none;" d="M106 638L106 651C107.591 647.209 107.591 641.791 106 638z"/>
<path style="fill:#efece7; stroke:none;" d="M830 648L831 652C831.393 650.076 831.146 649.64 830 648z"/>
<path style="fill:#e9e5de; stroke:none;" d="M64 651L64 667C65.8123 662.681 65.8123 655.319 64 651z"/>
<path style="fill:#f5f2eb; stroke:none;" d="M144 656L144 667C145.431 663.59 145.431 659.41 144 656z"/>
<path style="fill:#f5f4f0; stroke:none;" d="M798 657L798 683C800.477 677.097 800.477 662.903 798 657z"/>
<path style="fill:#f0ece9; stroke:none;" d="M835 664L836 668C836.393 666.076 836.146 665.64 835 664z"/>
<path style="fill:#f4f0ed; stroke:none;" d="M145 667C145 673.095 145.522 678.947 146 685C148.064 680.08 147.052 671.844 145 667z"/>
<path style="fill:#f1f0eb; stroke:none;" d="M828 674C828.058 676.784 828.352 679.291 829 682C830.157 679.034 829.62 676.705 828 674z"/>
<path style="fill:#ece8e3; stroke:none;" d="M807 680L807 696C808.812 691.681 808.812 684.319 807 680z"/>
<path style="fill:#eeeae7; stroke:none;" d="M176 691L176 706C177.74 701.852 177.74 695.148 176 691z"/>
<path style="fill:#f7f4ef; stroke:none;" d="M148 699C148.006 708.714 149.973 718.294 150 728C152.944 720.984 150.973 705.892 148 699z"/>
<path style="fill:#eeeae5; stroke:none;" d="M808 712L809 760C811.542 753.942 809.524 746.344 809.089 740C808.503 731.431 811.336 719.949 808 712z"/>
<path style="fill:#f1f1ec; stroke:none;" d="M175 719L175 727C176.161 724.23 176.161 721.77 175 719z"/>
<path style="fill:#eae9e6; stroke:none;" d="M78 720L79 724C79.393 722.076 79.1456 721.64 78 720z"/>
<path style="fill:#e5e2dd; stroke:none;" d="M174 724L173 760C174.576 756.243 173.863 752.029 174.039 748C174.367 740.528 176.989 731.123 174 724z"/>
<path style="fill:#ece9e4; stroke:none;" d="M800 727L800 752C802.413 746.25 802.413 732.75 800 727z"/>
<path style="fill:#e7e3de; stroke:none;" d="M125 736L126 744C127.157 741.034 126.62 738.705 125 736z"/>
<path style="fill:#f6f3ed; stroke:none;" d="M800 752L800 830C802.292 824.538 801 816.887 801 811L801 772C801 765.846 802.395 757.707 800 752z"/>
<path style="fill:#f2f0eb; stroke:none;" d="M173 760L173 768C174.161 765.23 174.161 762.77 173 760z"/>
<path style="fill:#f7f2f0; stroke:none;" d="M155 768C155 777.087 156.813 785.953 157 795C158.53 791.344 157.542 787.843 157.17 784C156.664 778.774 157.064 772.873 155 768z"/>
<path style="fill:#ebeae6; stroke:none;" d="M810 776L810 784C811.161 781.23 811.161 778.77 810 776z"/>
<path style="fill:#e8e8de; stroke:none;" d="M100 779L101 784C101.651 781.766 101.318 780.926 100 779z"/>
<path style="fill:#f4f3ee; stroke:none;" d="M172 779L172 792C173.591 788.209 173.591 782.791 172 779z"/>
<path style="fill:#f8f5f0; stroke:none;" d="M855 780L856 808C858.896 801.098 857.947 786.832 855 780z"/>
<path style="fill:#f0f0ea; stroke:none;" d="M811 792L811 800C812.161 797.23 812.161 794.77 811 792z"/>
<path style="fill:#f4f3ee; stroke:none;" d="M877 800L877 816C878.812 811.681 878.812 804.319 877 800z"/>
<path style="fill:#e7e3de; stroke:none;" d="M140 803C140.064 806.078 140.438 808.975 141 812C142.104 808.92 141.404 805.922 140 803z"/>
<path style="fill:#eeebe6; stroke:none;" d="M109 804C109.684 805.58 109.805 805.777 111 807C110.316 805.42 110.195 805.223 109 804z"/>
<path style="fill:#f4f3ef; stroke:none;" d="M812 808L812 816C813.161 813.23 813.161 810.77 812 808z"/>
<path style="fill:#e2e1dc; stroke:none;" d="M170 812L170 832C172.087 827.027 172.087 816.973 170 812z"/>
<path style="fill:#ebe7e4; stroke:none;" d="M114 816L115 820C115.393 818.076 115.146 817.64 114 816z"/>
<path style="fill:#f2f1ec; stroke:none;" d="M813 824L813 832C814.161 829.23 814.161 826.77 813 824z"/>
<path style="fill:#eee9e9; stroke:none;" d="M814 840L814 848C815.161 845.23 815.161 842.77 814 840z"/>
<path style="fill:#e2ddd9; stroke:none;" d="M169 841L169 875C171.802 868.323 170 858.215 170 851C170 847.582 170.328 844.166 169 841z"/>
<path style="fill:#e7e7df; stroke:none;" d="M871 842L870 848C871.495 845.815 871.889 844.508 871 842z"/>
<path style="fill:#dbd7ce; stroke:none;" d="M168 843C168 848.081 168.183 853.03 167 858C165.814 856.964 165.396 856.661 164 856C164 869.786 164.939 883.764 169.217 897C182.882 939.277 225.783 955.262 261 975.336C279.191 985.706 296.652 999.981 316 1008C316.778 1002.38 322.399 1005.9 326 1007C323.212 1002.74 317.452 1000.98 313 998.753C303.58 994.043 294.462 988.779 285 984.216C266.912 975.493 249.498 965.158 232 955.333C219.943 948.564 207.399 942.197 197.171 932.675C181.076 917.692 171.334 893.638 169.171 872C168.276 863.051 171.49 851.317 168 843z"/>
<path style="fill:#e6e3dd; stroke:none;" d="M149 845C149.117 847.73 149.499 850.314 150 853C151.038 850.102 150.433 847.696 149 845z"/>
<path style="fill:#f0efea; stroke:none;" d="M815 851L815 873C817.219 867.713 817.219 856.287 815 851z"/>
<path style="fill:#ebeae6; stroke:none;" d="M799 856L799 864C800.161 861.23 800.161 858.77 799 856z"/>
<path style="fill:#f3f2ee; stroke:none;" d="M164 872C164.004 878.189 165.213 883.904 166 890C167.779 885.442 165.892 876.468 164 872z"/>
<path style="fill:#e4e0d9; stroke:none;" d="M157 882C157.102 886.808 158.585 891.246 159 896C160.766 891.671 159.148 886.011 157 882z"/>
<path style="fill:#ecebe6; stroke:none;" d="M178 915C178.684 916.58 178.805 916.777 180 918C179.316 916.42 179.195 916.223 178 915z"/>
<path style="fill:#edece7; stroke:none;" d="M235 957C236.223 958.195 236.42 958.316 238 959C236.777 957.805 236.58 957.684 235 957z"/>
<path style="fill:#d8d5ce; stroke:none;" d="M193 1004C190.635 1010.95 194.154 1014.15 199.001 1019C206.008 1026.01 214.027 1032.25 222.91 1036.71C243.795 1047.19 266.689 1050.15 289 1056.56C304.924 1061.13 320.921 1065.39 337 1069.34C341.467 1070.44 345.372 1072.54 350 1073C348.542 1071.92 347.752 1071.56 346 1071L348 1067C336.983 1063.51 325.29 1061.79 314 1059.34C299.541 1056.2 285.288 1052 271 1048.35C254.243 1044.07 238.227 1040.34 223 1031.66C210.665 1024.63 202.891 1013.69 193 1004z"/>
<path style="fill:#f4f0e7; stroke:none;" d="M681 1010C683.044 1008.38 683.896 1007.36 685 1005C682.159 1006.13 681.508 1006.99 681 1010z"/>
<path style="fill:#ffffff; stroke:none;" d="M522 1100C549.825 1109.42 584.06 1107.49 607.996 1089.52C623.405 1077.96 635.682 1060.47 648.282 1046C654.909 1038.39 661.555 1030.67 668.424 1023.29C672.882 1018.5 678.243 1014 681 1008C673.045 1011.3 666.222 1016.86 659 1021.46C644.492 1030.7 629.789 1039.89 615 1048.69C592.468 1062.1 569.835 1075.34 547 1088.23C539.014 1092.74 529.626 1095.12 522 1100z"/>
<path style="fill:#e8e7e2; stroke:none;" d="M390 1036C391.543 1037.27 392.048 1037.49 394 1038C392.542 1036.92 391.752 1036.56 390 1036z"/>
<path style="fill:#f4efed; stroke:none;" d="M244 1041C246.314 1042.59 248.19 1042.86 251 1043C248.689 1041.61 246.691 1041.23 244 1041z"/>
<path style="fill:#ebe8e3; stroke:none;" d="M373 1044C374.223 1045.2 374.42 1045.32 376 1046C374.777 1044.8 374.58 1044.68 373 1044z"/>
<path style="fill:#e3e2dd; stroke:none;" d="M274 1049C277.31 1051.36 280.987 1051.82 285 1052C281.625 1050.19 277.784 1049.51 274 1049z"/>
<path style="fill:#e7e7df; stroke:none;" d="M268 1051C269.506 1051.68 270.315 1051.83 272 1052C270.494 1051.32 269.685 1051.17 268 1051z"/>
<path style="fill:#eeede9; stroke:none;" d="M347 1066C349.311 1067.39 351.309 1067.77 354 1068C351.686 1066.41 349.81 1066.14 347 1066z"/>
<path style="fill:#f4f0ed; stroke:none;" d="M379 1073C383.542 1075.19 388.983 1075.9 394 1076C389.426 1073.55 384.13 1073.04 379 1073z"/>
<path style="fill:#ede9e6; stroke:none;" d="M474 1073C480.635 1075.98 488.876 1075 496 1075C490.16 1072.55 480.414 1073.05 474 1073z"/>
<path style="fill:#e4e1dc; stroke:none;" d="M378 1081C380.042 1082.42 381.511 1082.75 384 1083C381.958 1081.58 380.489 1081.25 378 1081z"/>
<path style="fill:#ebe9e3; stroke:none;" d="M424 1095C425.458 1096.08 426.248 1096.44 428 1097C426.457 1095.73 425.952 1095.51 424 1095z"/>
<path style="fill:#eae7df; stroke:none;" d="M592 1098C593.809 1098.57 594.069 1098.47 596 1098C594.341 1097.59 593.758 1097.69 592 1098z"/>
<path style="fill:#f0ede8; stroke:none;" d="M552 1105C556.724 1106.98 562.91 1106 568 1106C563.276 1104.02 557.09 1105 552 1105z"/>
<path style="fill:#ecece4; stroke:none;" d="M480 1113C481.75 1114.25 482.857 1114.61 485 1115C483.249 1113.75 482.143 1113.39 480 1113z"/>
<path style="fill:#f5f2eb; stroke:none;" d="M624 1119C626.462 1119.7 627.665 1119.11 630 1118C627.726 1117.59 626.219 1118.21 624 1119z"/>
<path style="fill:#e8e5e0; stroke:none;" d="M544 1133C546.588 1134.38 549.08 1134.76 552 1135C549.397 1133.44 547.022 1133.14 544 1133z"/>
<path style="fill:#e7e4df; stroke:none;" d="M576 1134C578.613 1135.1 581.164 1134.99 584 1135C581.387 1133.9 578.836 1134.01 576 1134z"/>
<path style="fill:#e9e6df; stroke:none;" d="M555 1135C560.959 1137.5 569.564 1136 576 1136C570.041 1133.5 561.436 1135 555 1135z"/>
</svg>
