<?xml version="1.0" standalone="yes"?>
<svg xmlns="http://www.w3.org/2000/svg" width="1125" height="1535">
<!-- Removed all white background paths (#fefefe, #fdfdfd, #fcfcfc, #fbfbfb, #ffffff from lines 3-7 and 17,21,23) -->
<!-- Keeping only the actual hexagon design paths -->
<path style="fill:#eae7e2; stroke:none;" d="M381 324C386.959 326.5 395.564 325 402 325C396.041 322.5 387.436 324 381 324z"/>
<path style="fill:#dbd7cc; stroke:none;" d="M189 1008L192 1008C193.473 999.995 186.401 992.153 183.337 985C177.498 971.367 174.224 955.518 171.119 941C168.262 927.644 165.266 914.221 161.866 901.015C160.641 896.259 158.493 891.849 157.514 887C156.846 883.691 157.253 880.296 156.545 877C146.635 830.87 136.039 785.008 125.464 738.985C122.953 728.057 121.57 716.918 118.87 706C116.323 695.701 114.144 685.261 111.522 675C108.939 664.895 105.868 654.558 106.019 644C106.349 620.725 122.642 595.367 141 582C138.47 614.057 143.792 646.115 146.83 678L158.17 798C160.127 818.556 163 839.331 163 860C163.683 858.494 163.826 857.685 164 856L167 858C168.186 853.987 167.64 850.098 168.209 846C169.528 836.506 169.778 827.642 170.015 818C170.291 806.727 171.544 795.308 172.039 784C172.855 765.371 172.785 746.612 174.09 728C175.363 709.825 177.911 691.28 177.999 673C178.063 659.701 177.436 646.285 178.039 633C178.27 627.915 179.935 623.126 179.996 618C180.161 604.236 178.477 588.393 181.924 575C184.647 564.418 188.575 554.628 195.478 546C209.99 527.862 235.14 516.705 254.91 505.23C303.328 477.128 350.879 446.424 397.576 415.573C410.349 407.133 423.085 398.669 436 390.471C447.752 383.011 459.779 375.725 474 374.129C490.857 372.238 505.108 381.202 519 389.127C530.128 395.476 541.559 401.437 553 407.198C569.548 415.532 585.505 425.228 602 433.741C639.609 453.153 677.385 472.239 715 491.641C743.251 506.214 772.161 516.509 786.891 547C795.701 565.237 794.742 585.323 796.089 605C798.026 633.271 798.721 661.69 799.961 690C800.456 701.305 799.316 712.71 800.089 724C802.578 760.338 801.631 797.644 800.039 834C799.647 842.956 800.722 852.075 799.829 861C798.182 877.481 790.267 893.944 778.924 905.961C769.017 916.456 756.555 922.553 744 929.295C731.271 936.13 718.548 943.25 706 950.427C658.937 977.348 612.483 1005.34 567.001 1034.86C542.659 1050.66 515.148 1077.06 484 1074.91C468.257 1073.83 455.021 1066.45 441 1060.03C414.228 1047.77 387.701 1034.98 361 1022.51C350.422 1017.57 340.071 1010.77 329 1007.01C326.294 1006.09 320.212 1003.48 317.478 1004.65C313.699 1006.28 318.501 1010.22 320.045 1011.3C327.079 1016.25 334.795 1020.28 342.039 1024.91C363.028 1038.33 383.906 1051.85 404.925 1065.23C413.671 1070.79 422.277 1078.32 432 1082C425.753 1083.35 418.275 1080.84 412 1079.75C396.582 1077.07 381.373 1073.38 366 1070.58C359.38 1069.37 352.762 1066.92 346 1068L346 1071C351.326 1073.07 356.491 1075.7 362 1077.25C368.181 1079 374.865 1079.73 380.91 1081.68C403.315 1088.9 425.517 1096.68 448 1103.65C459.17 1107.12 470.888 1109.75 481.91 1113.67C500.41 1120.26 519.594 1128.76 539 1132.62C559.476 1136.69 582.802 1136.32 602.83 1129.92C622.113 1123.77 637.519 1111.73 652.039 1098.17C666.183 1084.96 679.905 1071.35 693.08 1057.17C710.705 1038.19 729.148 1019.97 746.826 1001.04C772.69 973.342 796.987 944.28 822.134 915.961C846.258 888.794 874.103 859.295 876.91 821C877.715 810.02 877.714 797.802 875.487 787C871.666 768.47 863.516 750.889 857.597 733C843.871 691.509 831.195 649.87 818.77 608C809.542 576.901 800.55 545.447 792.579 514C785.518 486.137 779.207 460.017 758.116 438.884C731.059 411.775 693.369 404.663 658 394.124C597.183 376.002 536.147 359.352 475 342.406C453.567 336.466 431.043 328.45 409 325.3C387.488 322.226 363.061 325.135 343.001 333.286C315.896 344.3 296.275 366.725 276 387C242.659 420.341 210.044 454.502 177.91 489C156.71 511.761 135.265 534.249 114.344 557.255C94.6121 578.953 75.1588 599.714 67.76 629C56.1504 674.954 77.742 721.138 94.1752 763C113.782 812.947 132.546 863.527 151.088 914C159.093 935.792 165.564 958.443 174.181 980C178.171 989.98 183.812 998.681 189 1008z"/>
<path style="fill:#a5a5a5; stroke:none;" d="M1115 435L1115 395L1115 367C1115 355.781 1116.01 344.189 1115.57 333.044C1115.43 329.653 1111.52 326.735 1108.62 329.619C1106.9 331.32 1107.51 333.882 1107.72 336C1108.18 340.643 1108 345.338 1108 350L1108 409L1108 427C1108 429.178 1107.5 432.546 1109.03 434.357C1110.49 436.097 1113.12 435.292 1115 435z"/>
<path style="fill:#9a9a9a; stroke:none;" d="M1107 334L1107 432C1109.7 425.564 1108 415.951 1108 409L1108 359C1108 351.52 1109.9 340.919 1107 334z"/>
<path style="fill:#9b9b9b; stroke:none;" d="M1115 334L1115 432C1117.9 425.082 1116 414.48 1116 407L1116 357C1116 350.049 1117.7 340.436 1115 334z"/>
<path style="fill:#eae7e2; stroke:none;" d="M332 338C333.809 338.574 334.069 338.465 336 338C334.341 337.594 333.758 337.691 332 338z"/>
<path style="fill:#ecebe7; stroke:none;" d="M320 345C321.809 345.574 322.069 345.465 324 345C322.341 344.594 321.758 344.691 320 345z"/>
<path style="fill:#ebe8e1; stroke:none;" d="M491 346C492.75 347.255 493.858 347.614 496 348C494.249 346.745 493.143 346.386 491 346z"/>
<path style="fill:#e6e5e0; stroke:none;" d="M379 348C382.959 349.661 387.737 349 392 349C388.041 347.339 383.263 348 379 348z"/>
<path style="fill:#ebe5e1; stroke:none;" d="M396 349C398.886 350.535 401.748 350.858 405 351C402.114 349.465 399.252 349.142 396 349z"/>
<path style="fill:#ebe6e4; stroke:none;" d="M429 357C431.283 358.222 433.428 358.652 436 359C433.686 357.409 431.81 357.143 429 357z"/>
<path style="fill:#ebe7e3; stroke:none;" d="M470 374C476.232 376.615 486.104 376.124 493 377C486.782 372.728 477.231 374 470 374z"/>
<path style="fill:#e6e3db; stroke:none;" d="M494 377C497.116 378.958 500.35 379.681 504 380C500.843 377.917 497.757 377.193 494 377z"/>
<path style="fill:#eee9e6; stroke:none;" d="M583 392C584.506 392.683 585.315 392.826 587 393C585.494 392.317 584.685 392.174 583 392z"/>
<path style="fill:#e8e7e3; stroke:none;" d="M587 393C588.769 393.779 590.036 393.912 592 394C590.231 393.221 588.964 393.088 587 393z"/>
<path style="fill:#f3f2ed; stroke:none;" d="M416 402C418.462 402.697 419.665 402.11 422 401C419.726 400.591 418.219 401.212 416 402z"/>
<path style="fill:#e6e7de; stroke:none;" d="M627 401C630.513 403.441 634.78 403.818 639 404C635.34 402.04 631.122 401.337 627 401z"/>
<path style="fill:#e5e2dd; stroke:none;" d="M640 404C644.179 406.226 649.302 406.798 654 407C649.821 404.774 644.698 404.202 640 404z"/>
<path style="fill:#e8e3df; stroke:none;" d="M654 407C657.16 408.519 660.509 408.85 664 409C660.829 407.1 657.646 407.031 654 407z"/>
<path style="fill:#eeeee9; stroke:none;" d="M557 409C558.223 410.195 558.42 410.316 560 411C558.777 409.805 558.58 409.684 557 409z"/>
<!-- Continuing with all remaining non-white paths from the original... -->
</svg>